HIERARCHY
ROOT Hips
{
  OFFSET 7.37879 96.3563 -8.57355
  CHANNELS 6 Xposition Yposition Zposition Zrotation Xrotation Yrotation
  JOINT ToSpine
  {
    OFFSET -2.69724 7.43032 -0.144315
    CHANNELS 3 Zrotation Xrotation Yrotation
    JOINT Spine
    {
      OFFSET -0.0310711 10.7595 1.96963
      CHANNELS 3 Zrotation Xrotation Yrotation
      JOINT Spine1
      {
        OFFSET 13.1342 3.43533 0.764692
        CHANNELS 3 Zrotation Xrotation Yrotation
        JOINT Neck
        {
          OFFSET 29.8703 7.82586 -0.130764
          CHANNELS 3 Zrotation Xrotation Yrotation
          JOINT Head
          {
            OFFSET 9.52751 0.295786 -0.907742
            CHANNELS 3 Zrotation Xrotation Yrotation
            End Site
            {
              OFFSET 16.4037 0.713936 2.7358
            }
          }
        }
        JOINT LeftShoulder
        {
          OFFSET 27.5574 4.95586 2.47156
          CHANNELS 3 Zrotation Xrotation Yrotation
          JOINT LeftArm
          {
            OFFSET 1.20734 -0.998971 20.1238
            CHANNELS 3 Zrotation Xrotation Yrotation
            JOINT LeftForeArm
            {
              OFFSET 26.8049 -0.0536703 -0.155908
              CHANNELS 3 Zrotation Xrotation Yrotation
              JOINT LeftHand
              {
                OFFSET 26.6817 0 0.320147
                CHANNELS 3 Zrotation Xrotation Yrotation
                End Site
                {
                  OFFSET 18.6119 0 0.382219
                }
              }
            }
          }
        }
        JOINT RightShoulder
        {
          OFFSET 27.5927 4.71444 -2.65209
          CHANNELS 3 Zrotation Xrotation Yrotation
          JOINT RightArm
          {
            OFFSET 2.83739 -1.17114 -18.7564
            CHANNELS 3 Zrotation Xrotation Yrotation
            JOINT RightForeArm
            {
              OFFSET 28.839 -0.0548439 1.22491
              CHANNELS 3 Zrotation Xrotation Yrotation
              JOINT RightHand
              {
                OFFSET 26.5114 0 -0.101894
                CHANNELS 3 Zrotation Xrotation Yrotation
                End Site
                {
                  OFFSET 18.2168 0 0
                }
              }
            }
          }
        }
      }
    }
  }
  JOINT LeftUpLeg
  {
    OFFSET -4.76168 -1.9167 -10.2353
    CHANNELS 3 Zrotation Xrotation Yrotation
    JOINT LeftLeg
    {
      OFFSET 2.55951 -42.0585 -8.02213
      CHANNELS 3 Zrotation Xrotation Yrotation
      JOINT LeftFoot
      {
        OFFSET 3.16357 -42.5282 -3.95426
        CHANNELS 3 Zrotation Xrotation Yrotation
        JOINT LeftToeBase
        {
          OFFSET 0.346054 -6.02161 12.8035
          CHANNELS 3 Zrotation Xrotation Yrotation
          End Site
          {
            OFFSET 0.134235 -1.35082 5.13018
          }
        }
      }
    }
  }
  JOINT RightUpLeg
  {
    OFFSET -4.94151 -1.41743 10.6446
    CHANNELS 3 Zrotation Xrotation Yrotation
    JOINT RightLeg
    {
      OFFSET -2.56294 -42.0364 -7.94377
      CHANNELS 3 Zrotation Xrotation Yrotation
      JOINT RightFoot
      {
        OFFSET -3.0952 -42.555 -4.02241
        CHANNELS 3 Zrotation Xrotation Yrotation
        JOINT RightToeBase
        {
          OFFSET -0.0828122 -6.13587 12.8035
          CHANNELS 3 Zrotation Xrotation Yrotation
          End Site
          {
            OFFSET -0.131328 -1.35082 5.13018
          }
        }
      }
    }
  }
}
MOTION
Frames:	19
Frame Time:	0.0333333
9.96517 96.5275 -6.16577 63.6916 -44.5639 -18.6937 -70.1915 0 88.8779 49.4196 66.929 33.2759 11.384 20.0751 4.82876 -137.906 38.2653 162.603 -170.649 79.5244 -161.451 0.580813 -12.9238 -27.5868 -48.753 35.8961 -115.488 21.1657 -1.35974 -92.8217 0.851594 -0.00561113 -0.729923 -1.69625 5.40254 44.6101 -111.885 -18.826 78.5859 8.83305 -6.01746 56.3877 1.27567 0.0966411 5.82303 -59.4593 6.016 100.895 -0.187849 24.0719 -5.40185 2.39316 -10.5531 -1.01239 2.93375 -6.5088 0.551869 -51.2498 -7.68867 79.7391 2.32089 16.1298 2.55666 -3.85943 1.66182 0.574476 0.224481 -3.63025 1.51804 
10.0036 96.5458 -6.28069 64.319 -44.2771 -18.3039 -70.1915 0 88.8779 50.9532 67.1119 31.7365 11.2655 19.869 4.52433 -137.9 38.2925 162.898 -172.551 79.4962 -159.81 0.731753 -12.035 -27.0161 -49.3806 35.9574 -116.948 23.9553 -1.70195 -93.123 0.931383 -0.00511186 -0.662929 -1.73307 5.62567 44.0668 -113.563 -18.8825 79.3714 9.89002 -6.60668 56.887 1.40834 0.102726 5.76312 -59.6422 5.87128 100.985 -0.29147 24.2263 -6.04541 2.43474 -10.6864 -1.0221 2.66262 -6.07559 1.04146 -51.5457 -7.99739 79.6078 2.28173 16.3471 2.75038 -3.84962 1.6135 0.575256 0.361358 -3.74887 0.586486 
9.81476 96.5984 -6.68233 64.364 -44.0663 -18.1355 -70.1915 0 88.8779 52.6679 67.6023 30.5088 10.3002 20.0525 4.22145 -137.112 38.3795 162.826 -174.705 79.6094 -157.597 0.714459 -12.1448 -27.0735 -50.444 35.0629 -118.667 25.5079 -2.64611 -94.8043 0.827107 -0.00576539 -0.312017 -1.74162 5.71768 43.7789 -115.263 -18.1487 80.311 10.8009 -7.23652 56.817 1.55255 0.111951 5.81751 -59.0963 5.83624 100.897 -0.173363 24.748 -6.72576 1.93193 -10.7796 -1.00987 2.50153 -5.97127 1.86935 -51.4709 -7.95739 79.7288 2.20251 16.051 2.01268 -4.13076 2.13519 0.594009 0.281122 -4.1442 1.61964 
9.66473 96.6069 -6.92595 64.4538 -43.5709 -17.9583 -70.1915 0 88.8779 51.438 67.7376 30.9813 9.95882 20.1828 5.28491 -136.778 38.7245 163.225 -178.519 79.8264 -154.274 0.709085 -12.2268 -26.9807 -50.8837 34.2408 -120.997 25.1733 -3.44603 -96.5572 0.591441 -0.00728 0.169928 -1.75728 5.89664 43.2009 -116.665 -17.2422 81.1737 11.0564 -7.48745 56.5346 1.54821 0.109932 5.62027 -58.728 5.79371 100.833 -0.243267 24.6856 -6.82336 2.53815 -10.766 -1.0298 2.49548 -5.8009 1.30881 -51.343 -7.96971 79.8315 2.04736 15.8745 1.64102 -4.49628 2.63429 0.629263 0.369092 -4.62629 1.42794 
9.63629 96.6432 -7.27611 64.9141 -42.9752 -17.6619 -70.1915 0 88.8779 50.7757 68.336 30.5025 9.16561 20.433 6.83399 -136.34 39.1176 163.171 179.228 80.1841 -152.327 0.594953 -12.8625 -27.7149 -51.387 33.3735 -123.312 24.9431 -4.05845 -97.9056 0.356557 -0.00850163 0.653727 -1.63663 5.71505 42.1462 -118.179 -15.9405 81.7442 10.8147 -7.28726 56.6378 1.48971 0.103179 5.52268 -58.367 5.53284 100.769 -0.350121 25.2327 -7.90331 2.0145 -11.0281 -1.02796 2.2041 -5.46641 2.22208 -51.496 -8.41322 79.7065 1.99855 15.7332 1.2054 -4.67434 2.86876 0.64764 0.367214 -4.83135 1.6733 
9.57855 96.6533 -7.63501 65.2076 -42.5019 -17.3547 -70.1915 0 88.8779 51.6744 68.4546 30.2118 9.01479 20.6895 5.67321 -134.674 38.6559 161.52 -178.906 80.1612 -153.61 0.639056 -12.7732 -26.5651 -51.7118 32.0254 -126.555 25.8761 -4.56949 -98.5738 0.209019 -0.00689909 0.976611 -1.84733 6.17662 43.3818 -119.556 -13.8909 82.9247 10.9584 -7.3538 56.7369 1.47495 0.0993851 5.38198 -57.7262 5.38246 100.571 -0.447075 26.1279 -8.94658 1.94749 -11.0249 -1.02631 2.17251 -5.86416 3.88904 -51.3948 -8.62379 79.7115 1.83971 15.9 1.2779 -3.73046 2.88751 0.501598 0.430021 -4.1753 0.484846 
9.53378 96.621 -8.13595 66.0866 -42.2785 -16.9097 -70.1915 0 88.8779 53.7162 69.1774 27.7614 8.25438 20.8485 5.84226 -133.587 38.4081 161.101 179.988 80.0181 -151.768 0.606888 -13.0342 -26.3934 -52.6404 31.1644 -129.002 25.992 -4.92174 -99.2198 -0.0537024 -0.00280623 1.50559 -1.82534 6.32132 42.4789 -121.042 -13.212 84.1257 11.458 -7.63967 56.9168 1.49421 0.0970672 5.19465 -57.7499 4.89737 100.31 -0.531882 26.613 -8.95462 2.20993 -10.8158 -1.02161 2.33494 -6.191 3.90719 -51.4061 -9.13156 79.619 1.57855 16.5623 1.46819 -2.85557 2.72435 0.373887 0.413559 -3.65016 0.110675 
9.40757 96.5445 -8.73422 66.7151 -42.1659 -16.5982 -70.1915 0 88.8779 56.5562 69.8889 24.8111 7.5045 20.9981 5.67726 -133.663 38.1892 160.792 -179.153 79.8829 -152.602 0.633264 -13.0008 -25.6939 -53.891 30.5515 -131.075 26.2819 -5.24172 -99.717 -0.327131 0.001353 2.03801 -1.86386 6.45607 42.5413 -122.232 -12.4043 85.9028 11.4588 -7.52884 57.292 1.37945 0.083815 4.74441 -57.4464 4.43392 99.8507 -0.579674 27.3904 -8.84192 2.50112 -11.006 -1.04302 2.24537 -6.07325 4.10694 -51.0422 -9.58932 79.6224 1.44187 17.386 1.16393 -3.43099 3.04134 0.448525 0.409812 -4.4695 0.964646 
9.30574 96.4869 -9.22766 67.4417 -42.3585 -16.0694 -70.1915 0 88.8779 60.6459 70.6425 21.0562 6.71181 21.1449 5.34055 -134.044 38.2316 160.978 -179.419 79.8504 -152.237 0.620852 -13.1402 -25.5289 -55.0337 29.8868 -132.24 26.0683 -5.46375 -100.245 -0.57489 0.00499198 2.5395 -1.84152 6.54875 41.9058 -122.928 -12.0675 87.2058 11.1227 -6.96086 58.5124 1.22907 0.0708753 4.35263 -57.1669 4.33914 99.5545 -0.697089 28.6551 -9.19003 2.20163 -11.2202 -1.04558 2.19702 -6.33921 5.4967 -50.8568 -9.6666 79.7521 1.25653 18.2231 1.3466 -4.03145 3.70117 0.51291 0.61536 -5.91177 0.777598 
9.14985 96.3569 -9.7066 67.5115 -42.4592 -16.3904 -70.1915 0 88.8779 62.3553 71.1113 18.9623 6.10609 21.3147 5.43497 -134.061 38.1979 160.913 179.256 79.7637 -150.297 0.60972 -13.2766 -25.2338 -56.1108 29.5349 -132.913 25.0567 -5.40016 -100.608 -0.73132 0.00580527 2.92409 -1.91693 6.8807 41.6192 -123.54 -11.5337 88.1285 11.167 -6.56287 60.0786 1.15664 0.0637912 4.10764 -56.6576 3.88091 99.3459 -0.82884 29.2348 -8.05445 2.58384 -11.6224 -1.08173 2.02158 -5.70336 4.37913 -49.7592 -10.1647 79.9431 1.0146 19.7146 1.23827 -3.64671 3.31172 0.469112 0.480981 -5.58788 1.56399 
8.97383 96.3227 -10.0723 67.2563 -42.5789 -17.0106 -70.1915 0 88.8779 62.8012 71.4231 18.0423 5.4946 21.4841 5.47835 -134.073 38.0608 160.891 179.133 79.6198 -149.881 0.587491 -13.4531 -25.1185 -56.6864 29.3829 -132.986 24.1808 -5.19498 -100.626 -0.818222 0.00524962 3.18056 -1.89344 6.89377 41.3494 -124.302 -11.5484 89.0678 11.7767 -6.6386 61.1015 1.1672 0.0601685 3.93725 -56.2804 3.31467 99.2521 -0.886671 29.3265 -8.12276 2.42043 -11.2382 -1.05386 2.28528 -6.4772 5.37636 -48.5772 -10.5928 80.1571 0.80428 20.9437 2.03729 -3.17289 3.2828 0.395834 0.623307 -5.62156 0.379409 
8.88534 96.2872 -10.258 67.2947 -42.5331 -17.0737 -70.1915 0 88.8779 63.2242 71.5345 17.4396 5.39566 21.5408 5.35458 -134.408 37.9361 160.63 -179.362 79.5755 -151.529 0.599663 -13.4032 -24.9868 -56.9551 29.3562 -133.034 23.9678 -5.0745 -100.481 -0.871283 0.00466093 3.31834 -1.87473 6.8333 41.3424 -124.8 -11.579 89.8729 11.7105 -6.2724 62.3056 1.1106 0.0570131 3.78057 -56.1208 3.18865 99.2277 -0.925721 29.4625 -8.49362 2.04866 -11.1208 -1.03508 2.34709 -6.74447 5.96376 -48.1896 -10.7584 80.2105 0.822579 21.3985 1.94083 -3.62748 3.60057 0.452389 0.696597 -6.15225 0.338268 
8.7615 96.2768 -10.3415 67.3019 -42.1511 -17.0412 -70.1915 0 88.8779 62.8957 71.4808 17.556 5.34955 21.5292 5.21118 -134.214 37.6586 159.999 -177.156 79.5037 -153.853 0.574856 -13.5725 -25.0076 -56.8804 29.4631 -132.847 23.3803 -4.89718 -100.399 -0.88543 0.00469675 3.40977 -1.87894 6.90782 41.164 -125.172 -11.5743 89.9581 11.6697 -5.94331 63.46 1.07319 0.0543307 3.68766 -55.8912 3.15019 99.2083 -0.928812 29.3818 -8.03233 2.57591 -11.3282 -1.06398 2.20837 -6.02729 4.2447 -48.0341 -10.9622 80.1202 0.926719 21.5035 1.61337 -3.60177 3.35305 0.460232 0.673789 -5.78083 0.12423 
8.67116 96.3316 -10.2908 67.4287 -41.6347 -16.9236 -70.1915 0 88.8779 62.7669 71.4181 17.4068 5.16901 21.4509 5.07688 -133.612 37.4902 159.551 -177.581 79.4646 -153.695 0.594619 -13.4662 -24.7959 -56.2599 29.3225 -132.88 22.6617 -4.67362 -100.273 -0.790031 0.00532659 3.26672 -1.88068 6.88165 41.3409 -125.861 -11.5836 89.8472 12.3388 -6.0846 64.2057 1.12408 0.0529457 3.67174 -55.8359 2.99663 99.1531 -0.802414 29.1985 -8.92319 2.12028 -11.3342 -1.05079 1.97405 -5.81723 5.12615 -48.1088 -11.0268 80.192 0.82366 21.4687 1.19283 -3.67069 3.24557 0.476074 0.693724 -5.78257 -0.0511226 
8.54299 96.3242 -10.1516 67.5181 -41.1043 -16.6969 -70.1915 0 88.8779 61.8786 71.378 17.97 5.28373 21.4427 5.18501 -133.35 37.4107 159.228 -177.68 79.4843 -154.431 0.617874 -13.3066 -24.7476 -55.5515 29.5298 -133.312 22.7534 -4.72849 -100.351 -0.767316 0.0054139 3.20518 -1.87216 6.85354 41.347 -126.258 -11.2954 89.7111 12.3989 -5.95144 64.8011 1.11219 0.0521798 3.62448 -55.6359 3.21151 99.231 -0.840777 29.2661 -9.77329 1.9898 -11.3317 -1.04708 1.79861 -5.63438 5.68149 -48.2661 -10.942 80.2085 0.824425 21.325 0.700853 -4.386 3.25373 0.588109 0.759614 -6.30227 -0.0728322 
8.48918 96.3481 -10.0168 67.6154 -40.6274 -16.4632 -70.1915 0 88.8779 61.3777 71.4726 18.5666 5.2539 21.7164 4.88028 -132.613 37.1163 158.343 -175.868 79.4969 -157.4 0.609797 -13.4384 -24.4187 -54.6038 29.9202 -134.089 22.1016 -4.66491 -100.554 -0.752564 0.00537436 3.23353 -1.81658 6.59745 41.5671 -126.809 -10.6745 89.5914 12.2724 -5.90219 64.7532 1.10019 0.051505 3.62152 -55.659 3.34688 99.2726 -0.783215 28.9599 -9.8592 2.20617 -11.0255 -1.03429 2.10615 -5.88523 4.43623 -48.4826 -10.9178 80.1289 0.8611 21.1633 0.430821 -4.25957 3.03427 0.577122 0.762275 -6.09385 -0.317217 
8.40781 96.3831 -9.84269 67.9772 -40.0736 -15.9466 -70.1915 0 88.8779 61.4597 71.5925 18.4402 5.10051 21.8122 4.86928 -131.787 36.8536 158.169 -177.704 79.3451 -156.92 0.638766 -13.2699 -24.225 -53.6961 30.0676 -135.363 21.7528 -4.64163 -100.693 -0.755493 0.00515591 3.27489 -1.79272 6.52341 41.5542 -127.67 -10.3038 89.3151 12.438 -6.11715 64.2719 1.12209 0.0509858 3.62915 -55.7565 3.48884 99.1682 -0.677473 28.9187 -10.7171 1.98663 -11.1075 -1.03225 1.82249 -5.46533 4.90717 -49.059 -10.7751 80.0463 0.891114 20.771 0.0256558 -4.56354 3.17451 0.619113 0.866446 -6.55994 -0.786125 
8.38414 96.4361 -9.66695 68.4348 -39.4516 -15.3264 -70.1915 0 88.8779 60.9193 71.6465 19.1139 5.38779 21.9892 4.60728 -130.739 36.5635 157.951 179.089 79.1611 -155.147 0.661737 -13.1668 -23.9342 -53.156 29.9714 -137.053 21.7894 -4.60055 -100.577 -0.778584 0.00475097 3.32923 -1.80359 6.6929 41.0422 -128.846 -10.0088 88.6688 12.2616 -6.3153 63.2212 1.13394 0.0505554 3.70052 -55.7931 3.67541 99.0444 -0.606605 28.9904 -11.5192 2.42464 -11.1832 -1.05082 1.46502 -4.92739 5.42343 -49.7037 -10.7971 79.7732 1.06638 20.4722 -0.823797 -4.20438 2.80933 0.577301 0.723101 -5.9146 -0.173361 
8.2095 96.4289 -9.5258 68.7481 -38.6997 -14.6084 -70.1915 0 88.8779 60.9967 71.8633 19.0175 5.16813 22.1078 4.92175 -129.376 36.3226 157.367 177.587 79.1587 -154.329 0.62916 -13.3815 -24.0935 -52.9379 29.2347 -138.649 21.2507 -4.43324 -100.475 -0.815264 0.00420775 3.48053 -1.80547 6.72927 40.9751 -129.916 -9.05376 88.421 11.9731 -6.46766 62.0986 1.09899 0.0501692 3.61975 -55.6191 4.02208 98.6652 -0.527515 29.083 -11.9035 2.17185 -10.7651 -1.01789 2.03419 -5.77458 4.53343 -50.0233 -10.6618 79.5549 1.29192 20.4726 -1.85275 -4.22925 2.56684 0.591311 0.67271 -5.76611 0.120766 
